<svg width="32" height="32" viewBox="0 0 32 32" fill="none" xmlns="http://www.w3.org/2000/svg">
<path d="M7.4027 27.9573C6.94249 27.9444 6.48958 27.8391 6.07085 27.6477C5.65213 27.4563 5.27614 27.1828 4.96521 26.8432C4.65428 26.5037 4.41476 26.1051 4.26086 25.6712C4.10697 25.2373 4.04185 24.7769 4.06937 24.3173C4.05337 21.4467 4.06937 18.576 4.06937 15.7053C4.06937 15.5285 4.1396 15.359 4.26463 15.2339C4.38965 15.1089 4.55922 15.0387 4.73603 15.0387C4.91284 15.0387 5.08241 15.1089 5.20744 15.2339C5.33246 15.359 5.4027 15.5285 5.4027 15.7053C5.4027 18.6387 5.36003 21.572 5.4027 24.5053C5.42403 25.9813 6.53337 26.624 7.85337 26.624H24.4707C24.8903 26.6343 25.3031 26.5162 25.6539 26.2856C26.0046 26.0549 26.2766 25.7227 26.4334 25.3333C26.5612 24.8734 26.6064 24.3944 26.5667 23.9187V15.7053C26.5667 15.5285 26.6369 15.359 26.762 15.2339C26.887 15.1089 27.0566 15.0387 27.2334 15.0387C27.4102 15.0387 27.5797 15.1089 27.7048 15.2339C27.8298 15.359 27.9 15.5285 27.9 15.7053C27.9 18.6707 28.0134 21.6587 27.9 24.6213C27.8886 25.075 27.787 25.5219 27.6012 25.936C27.4154 26.35 27.1491 26.723 26.8178 27.0332C26.4865 27.3434 26.0968 27.5846 25.6715 27.7428C25.2461 27.901 24.7935 27.973 24.34 27.9547L7.4027 27.9573Z" fill="black"/>
<path d="M15.5066 21.0907C15.6165 21.2032 15.7655 21.2691 15.9226 21.2747C15.9413 21.2747 15.9586 21.2813 15.9786 21.2827C15.9986 21.284 16.0146 21.2827 16.0333 21.2747C16.1905 21.2693 16.3396 21.2034 16.4493 21.0907L21.3413 16.1987C21.4627 16.0729 21.5299 15.9045 21.5284 15.7297C21.5269 15.5549 21.4568 15.3877 21.3332 15.2641C21.2096 15.1405 21.0424 15.0704 20.8676 15.0689C20.6928 15.0674 20.5244 15.1346 20.3986 15.256L16.6453 19.0093V4.68667C16.6453 4.50986 16.5751 4.34029 16.45 4.21526C16.325 4.09024 16.1554 4.02 15.9786 4.02C15.8018 4.02 15.6323 4.09024 15.5072 4.21526C15.3822 4.34029 15.312 4.50986 15.312 4.68667V19.0093L11.5573 15.256C11.4316 15.1346 11.2632 15.0674 11.0884 15.0689C10.9136 15.0704 10.7464 15.1405 10.6228 15.2641C10.4991 15.3877 10.429 15.5549 10.4275 15.7297C10.426 15.9045 10.4932 16.0729 10.6146 16.1987L15.5066 21.0907Z" fill="black"/>
</svg>
