<svg width="24" height="25" viewBox="0 0 24 25" fill="none" xmlns="http://www.w3.org/2000/svg">
<path d="M8 14.385C7.79333 14.385 7.61333 14.3084 7.46 14.155C7.30667 14.0017 7.23 13.8217 7.23 13.615C7.23 13.4084 7.30667 13.2287 7.46 13.076C7.61333 12.9227 7.79333 12.846 8 12.846C8.20667 12.846 8.38667 12.9227 8.54 13.076C8.69333 13.2294 8.77 13.4094 8.77 13.616C8.77 13.822 8.69333 14.0017 8.54 14.155C8.38667 14.3084 8.20667 14.385 8 14.385ZM12 14.385C11.7933 14.385 11.6133 14.3084 11.46 14.155C11.3067 14.0017 11.23 13.8217 11.23 13.615C11.23 13.4084 11.3067 13.2287 11.46 13.076C11.6133 12.9227 11.7933 12.846 12 12.846C12.2067 12.846 12.3867 12.9227 12.54 13.076C12.6933 13.2294 12.77 13.4094 12.77 13.616C12.77 13.822 12.6933 14.0017 12.54 14.155C12.3867 14.3084 12.2067 14.385 12 14.385ZM16 14.385C15.7933 14.385 15.6133 14.3084 15.46 14.155C15.3067 14.0017 15.23 13.8217 15.23 13.615C15.23 13.4084 15.3067 13.2287 15.46 13.076C15.6133 12.9227 15.7933 12.846 16 12.846C16.2067 12.846 16.3867 12.9227 16.54 13.076C16.6933 13.2294 16.77 13.4094 16.77 13.616C16.77 13.822 16.6933 14.0017 16.54 14.155C16.3867 14.3084 16.2067 14.385 16 14.385ZM5.615 21.5C5.155 21.5 4.771 21.346 4.463 21.038C4.15433 20.7294 4 20.345 4 19.885V7.11502C4 6.65502 4.15433 6.27102 4.463 5.96302C4.771 5.65435 5.155 5.50002 5.615 5.50002H7.385V3.27002H8.462V5.50002H15.615V3.27002H16.615V5.50002H18.385C18.845 5.50002 19.229 5.65435 19.537 5.96302C19.8457 6.27102 20 6.65502 20 7.11502V19.885C20 20.345 19.846 20.729 19.538 21.037C19.2293 21.3457 18.845 21.5 18.385 21.5H5.615ZM5.615 20.5H18.385C18.5383 20.5 18.6793 20.436 18.808 20.308C18.936 20.1794 19 20.0384 19 19.885V11.115H5V19.885C5 20.0384 5.064 20.1794 5.192 20.308C5.32067 20.436 5.46167 20.5 5.615 20.5ZM5 10.115H19V7.11502C19 6.96169 18.936 6.82069 18.808 6.69202C18.6793 6.56402 18.5383 6.50002 18.385 6.50002H5.615C5.46167 6.50002 5.32067 6.56402 5.192 6.69202C5.064 6.82069 5 6.96169 5 7.11502V10.115Z" fill="#818181"/>
</svg>
