<svg width="25" height="24" viewBox="0 0 25 24" fill="none" xmlns="http://www.w3.org/2000/svg">
<path d="M8.33325 13.885C8.12659 13.885 7.94659 13.8084 7.79325 13.655C7.63992 13.5017 7.56325 13.3217 7.56325 13.115C7.56325 12.9084 7.63992 12.7287 7.79325 12.576C7.94659 12.4227 8.12659 12.346 8.33325 12.346C8.53992 12.346 8.71992 12.4227 8.87325 12.576C9.02659 12.7294 9.10325 12.9094 9.10325 13.116C9.10325 13.322 9.02659 13.5017 8.87325 13.655C8.71992 13.8084 8.53992 13.885 8.33325 13.885ZM12.3333 13.885C12.1266 13.885 11.9466 13.8084 11.7933 13.655C11.6399 13.5017 11.5633 13.3217 11.5633 13.115C11.5633 12.9084 11.6399 12.7287 11.7933 12.576C11.9466 12.4227 12.1266 12.346 12.3333 12.346C12.5399 12.346 12.7199 12.4227 12.8733 12.576C13.0266 12.7294 13.1033 12.9094 13.1033 13.116C13.1033 13.322 13.0266 13.5017 12.8733 13.655C12.7199 13.8084 12.5399 13.885 12.3333 13.885ZM16.3333 13.885C16.1266 13.885 15.9466 13.8084 15.7933 13.655C15.6399 13.5017 15.5633 13.3217 15.5633 13.115C15.5633 12.9084 15.6399 12.7287 15.7933 12.576C15.9466 12.4227 16.1266 12.346 16.3333 12.346C16.5399 12.346 16.7199 12.4227 16.8733 12.576C17.0266 12.7294 17.1033 12.9094 17.1033 13.116C17.1033 13.322 17.0266 13.5017 16.8733 13.655C16.7199 13.8084 16.5399 13.885 16.3333 13.885ZM5.94825 21C5.48825 21 5.10425 20.846 4.79625 20.538C4.48759 20.2294 4.33325 19.845 4.33325 19.385V6.61502C4.33325 6.15502 4.48759 5.77102 4.79625 5.46302C5.10425 5.15435 5.48825 5.00002 5.94825 5.00002H7.71825V2.77002H8.79525V5.00002H15.9483V2.77002H16.9483V5.00002H18.7183C19.1783 5.00002 19.5623 5.15435 19.8703 5.46302C20.1789 5.77102 20.3333 6.15502 20.3333 6.61502V19.385C20.3333 19.845 20.1793 20.229 19.8713 20.537C19.5626 20.8457 19.1783 21 18.7183 21H5.94825ZM5.94825 20H18.7183C18.8716 20 19.0126 19.936 19.1413 19.808C19.2693 19.6794 19.3333 19.5384 19.3333 19.385V10.615H5.33325V19.385C5.33325 19.5384 5.39725 19.6794 5.52525 19.808C5.65392 19.936 5.79492 20 5.94825 20ZM5.33325 9.61502H19.3333V6.61502C19.3333 6.46169 19.2693 6.32069 19.1413 6.19202C19.0126 6.06402 18.8716 6.00002 18.7183 6.00002H5.94825C5.79492 6.00002 5.65392 6.06402 5.52525 6.19202C5.39725 6.32069 5.33325 6.46169 5.33325 6.61502V9.61502Z" fill="black"/>
</svg>
