<svg width="33" height="33" viewBox="0 0 33 33" fill="none" xmlns="http://www.w3.org/2000/svg">
<path d="M27.8438 6.70312H22.1719V5.15625C22.1719 4.47249 21.9003 3.81673 21.4168 3.33324C20.9333 2.84975 20.2775 2.57813 19.5938 2.57812H13.4062C12.7225 2.57812 12.0667 2.84975 11.5832 3.33324C11.0997 3.81673 10.8281 4.47249 10.8281 5.15625V6.70312H5.15625C5.0195 6.70312 4.88835 6.75745 4.79165 6.85415C4.69495 6.95085 4.64062 7.082 4.64062 7.21875C4.64062 7.3555 4.69495 7.48665 4.79165 7.58335C4.88835 7.68005 5.0195 7.73438 5.15625 7.73438H6.70312V26.8125C6.70312 27.2228 6.8661 27.6162 7.15619 27.9063C7.44629 28.1964 7.83974 28.3594 8.25 28.3594H24.75C25.1603 28.3594 25.5537 28.1964 25.8438 27.9063C26.1339 27.6162 26.2969 27.2228 26.2969 26.8125V7.73438H27.8438C27.9805 7.73438 28.1117 7.68005 28.2084 7.58335C28.305 7.48665 28.3594 7.3555 28.3594 7.21875C28.3594 7.082 28.305 6.95085 28.2084 6.85415C28.1117 6.75745 27.9805 6.70312 27.8438 6.70312ZM11.8594 5.15625C11.8594 4.74599 12.0223 4.35254 12.3124 4.06244C12.6025 3.77235 12.996 3.60938 13.4062 3.60938H19.5938C20.004 3.60938 20.3975 3.77235 20.6876 4.06244C20.9776 4.35254 21.1406 4.74599 21.1406 5.15625V6.70312H11.8594V5.15625ZM25.2656 26.8125C25.2656 26.9493 25.2113 27.0804 25.1146 27.1771C25.0179 27.2738 24.8868 27.3281 24.75 27.3281H8.25C8.11325 27.3281 7.9821 27.2738 7.8854 27.1771C7.7887 27.0804 7.73438 26.9493 7.73438 26.8125V7.73438H25.2656V26.8125ZM13.9219 13.4062V21.6562C13.9219 21.793 13.8676 21.9242 13.7709 22.0209C13.6742 22.1175 13.543 22.1719 13.4062 22.1719C13.2695 22.1719 13.1383 22.1175 13.0416 22.0209C12.9449 21.9242 12.8906 21.793 12.8906 21.6562V13.4062C12.8906 13.2695 12.9449 13.1383 13.0416 13.0416C13.1383 12.9449 13.2695 12.8906 13.4062 12.8906C13.543 12.8906 13.6742 12.9449 13.7709 13.0416C13.8676 13.1383 13.9219 13.2695 13.9219 13.4062ZM20.1094 13.4062V21.6562C20.1094 21.793 20.0551 21.9242 19.9584 22.0209C19.8617 22.1175 19.7305 22.1719 19.5938 22.1719C19.457 22.1719 19.3258 22.1175 19.2291 22.0209C19.1324 21.9242 19.0781 21.793 19.0781 21.6562V13.4062C19.0781 13.2695 19.1324 13.1383 19.2291 13.0416C19.3258 12.9449 19.457 12.8906 19.5938 12.8906C19.7305 12.8906 19.8617 12.9449 19.9584 13.0416C20.0551 13.1383 20.1094 13.2695 20.1094 13.4062Z" fill="#D95A5A"/>
</svg>
